:FULLY-SPECIFIED
:FORCE-ALL-JOINTS-BE-3DOF
:DEGREES
243
root 9.24816 16.3788 -2.55447 9.81479 -5.66372 -2.17993
lfemur -44.9086 9.24351 -23.2381
ltibia 41.6786 -0 0
lfoot -8.13529 5.71185 -0.0293444
ltoes -1.52751 0 0
rfemur 11.6449 1.55705 20.6452
rtibia 28.882 -0 0
rfoot 9.03264 5.56797 -0.183159
rtoes -14.6294 0 0
lowerback -6.41241 2.28332 -0.341682
upperback -3.03464 3.03483 1.82988
thorax 0.328505 1.53744 2.27621
lowerneck -18.2031 -5.9815 -14.0854
upperneck 17.0962 -7.55434 14.754
head 9.53063 -2.95829 6.4772
lclavicle -1.94623e-14 -5.56597e-15 0
lhumerus -47.275 -4.55697 88.6165
lradius 20.1953 -0 0
lwrist -6.67603 0 0
lhand -7.35807 -22.6024 -0.00303957
lfingers 7.12502 -0 0
lthumb 18.5267 6.53989 -0.00199092
rclavicle -1.94623e-14 -5.56597e-15 0
rhumerus -46.0828 8.48778 -86.6139
rradius 41.3453 -0 0
rwrist -22.2347 0 0
rhand -29.4015 -22.9877 0.0146395
rfingers 7.12502 -0 0
rthumb -2.7394 -52.9476 0.0139631
244
root 9.27502 16.3738 -2.39094 9.81482 -5.7341 -2.08514
lfemur -44.5647 9.35636 -23.4201
ltibia 41.8833 -0 0
lfoot -8.07509 5.60016 -0.020611
ltoes -1.26403 0 0
rfemur 11.3573 1.50331 20.3986
rtibia 29.3914 -0 0
rfoot 9.28332 5.42234 -0.145702
rtoes -14.8204 0 0
lowerback -6.40684 2.23215 -0.427807
upperback -3.05462 2.97323 1.80431
thorax 0.308511 1.50673 2.29221
lowerneck -18.2718 -5.95081 -14.0553
upperneck 17.1887 -7.5123 14.7161
head 9.5661 -2.93757 6.46774
lclavicle -1.94623e-14 -5.56597e-15 0
lhumerus -46.9376 -4.57547 88.499
lradius 20.1069 -0 0
lwrist -6.89237 0 0
lhand -7.32491 -22.5838 -0.00253739
lfingers 7.12502 -0 0
lthumb 18.5586 6.55477 -0.00165183
rclavicle -1.94623e-14 -5.56597e-15 0
rhumerus -46.2969 8.41867 -86.6804
rradius 41.1078 -0 0
rwrist -22.1383 0 0
rhand -29.3249 -22.8569 0.0105046
rfingers 7.12502 -0 0
rthumb -2.6655 -52.8184 0.0100194
245
root 9.30188 16.3687 -2.22741 9.80633 -5.78976 -1.99012
lfemur -44.1946 9.44686 -23.5938
ltibia 42.0242 -0 0
lfoot -8.04487 5.49644 -0.0127027
ltoes -1.03151 0 0
rfemur 11.0222 1.4541 20.1672
rtibia 29.881 -0 0
rfoot 9.45777 5.26008 -0.10263
rtoes -15.0085 0 0
lowerback -6.40047 2.17689 -0.512362
upperback -3.06737 2.90596 1.78186
thorax 0.296103 1.47309 2.31011
lowerneck -18.3399 -5.91896 -14.0232
upperneck 17.283 -7.46878 14.6754
head 9.60183 -2.91638 6.45731
lclavicle -1.94623e-14 -5.56597e-15 0
lhumerus -46.5729 -4.61528 88.3946
lradius 20.0371 -0 0
lwrist -7.07022 0 0
lhand -7.3136 -22.5719 -0.00187095
lfingers 7.12502 -0 0
lthumb 18.5694 6.56468 -0.00121205
rclavicle -1.94623e-14 -5.56597e-15 0
rhumerus -46.4901 8.35463 -86.734
rradius 40.8968 -0 0
rwrist -22.0548 0 0
rhand -29.2574 -22.736 0.00663578
rfingers 7.12502 -0 0
rthumb -2.60031 -52.6989 0.00632947
246
root 9.32874 16.3637 -2.06389 9.78897 -5.83008 -1.895
lfemur -43.7978 9.51364 -23.7588
ltibia 42.0975 -0 0
lfoot -8.04643 5.4011 -0.00578103
ltoes -0.831718 0 0
rfemur 10.6382 1.40965 19.952
rtibia 30.3493 -0 0
rfoot 9.55203 5.08052 -0.0540091
rtoes -15.1936 0 0
lowerback -6.39329 2.11746 -0.595155
upperback -3.07251 2.83289 1.76268
thorax 0.291686 1.43645 2.32997
lowerneck -18.4072 -5.88591 -13.9892
upperneck 17.3791 -7.42372 14.6318
head 9.63777 -2.8947 6.44588
lclavicle -1.94623e-14 -5.56597e-15 0
lhumerus -46.1801 -4.67745 88.3038
lradius 19.9866 -0 0
lwrist -7.20749 0 0
lhand -7.32545 -22.567 -0.00102686
lfingers 7.12502 -0 0
lthumb 18.5579 6.56929 -0.000662509
rclavicle -1.94623e-14 -5.56597e-15 0
rhumerus -46.6612 8.29608 -86.7741
rradius 40.714 -0 0
rwrist -21.985 0 0
rhand -29.1995 -22.6255 0.00310934
rfingers 7.12502 -0 0
rthumb -2.5444 -52.5896 0.00296592
247
root 9.3556 16.3586 -1.90036 9.76238 -5.85443 -1.79992
lfemur -43.374 9.55533 -23.9149
ltibia 42.0992 0 0
lfoot -8.08158 5.31458 0
ltoes -0.666402 0 0
rfemur 10.2037 1.37025 19.7541
rtibia 30.7944 0 0
rfoot 9.56213 4.88299 0
rtoes -15.3751 0 0
lowerback -6.38529 2.05378 -0.675997
upperback -3.06967 2.75391 1.74692
thorax 0.295667 1.39674 2.35183
lowerneck -18.4737 -5.85161 -13.953
upperneck 17.477 -7.37709 14.5853
head 9.67392 -2.87252 6.43342
lclavicle -1.94623e-14 -5.56597e-15 0
lhumerus -45.758 -4.76304 88.2269
lradius 19.9566 0 0
lwrist -7.30207 0 0
lhand -7.36173 -22.5698 0
lfingers 7.12502 0 0
lthumb 18.5229 6.56827 0
rclavicle -1.94623e-14 -5.56597e-15 0
rhumerus -46.8088 8.24347 -86.8
rradius 40.5611 0 0
rwrist -21.9297 0 0
rhand -29.1518 -22.5261 0
rfingers 7.12502 0 0
rthumb -2.49833 -52.4912 0
248
root 9.37276 16.371 -1.77047 9.72521 -5.86311 -1.70163
lfemur -42.9124 9.57267 -24.0678
ltibia 42.0416 -0 0
lfoot -8.15407 5.2383 0.0052007
ltoes -0.52916 0 0
rfemur 9.70038 1.33365 19.5679
rtibia 31.2328 -0 0
rfoot 9.4815 4.65758 0.0617252
rtoes -15.5601 0 0
lowerback -6.37502 1.98354 -0.757111
upperback -3.05834 2.66611 1.73433
thorax 0.307905 1.35249 2.37649
lowerneck -18.5423 -5.81506 -13.9134
upperneck 17.5796 -7.32732 14.5338
head 9.7115 -2.84911 6.4193
lclavicle 3.13086e-14 9.54166e-15 0
lhumerus -45.2918 -4.87114 88.1582
lradius 19.9432 -0 0
lwrist -7.35705 0 0
lhand -7.42388 -22.5789 0.0013253
lfingers 7.12502 -0 0
lthumb 18.463 6.56284 0.000859569
rclavicle 3.13086e-14 9.54166e-15 0
rhumerus -46.9371 8.19585 -86.8119
rradius 40.4343 -0 0
rwrist -21.8884 0 0
rhand -29.1127 -22.4342 -0.00277361
rfingers 7.12502 -0 0
rthumb -2.46056 -52.4001 -0.00264597
249
root 9.38992 16.3834 -1.64057 9.67677 -5.85716 -1.59703
lfemur -42.404 9.56822 -24.2235
ltibia 41.9407 -0 0
lfoot -8.26502 5.17299 0.0104275
ltoes -0.412002 0 0
rfemur 9.11362 1.29712 19.3871
rtibia 31.6813 -0 0
rfoot 9.30914 4.39611 0.132821
rtoes -15.7553 0 0
lowerback -6.36115 1.90477 -0.840745
upperback -3.03852 2.56705 1.72446
thorax 0.327751 1.30244 2.40461
lowerneck -18.6159 -5.77539 -13.8691
upperneck 17.6896 -7.27305 14.4757
head 9.75165 -2.82382 6.40303
lclavicle 3.13086e-14 9.54166e-15 0
lhumerus -44.7692 -4.9996 88.0915
lradius 19.9418 -0 0
lwrist -7.37786 0 0
lhand -7.51154 -22.5927 0.00304091
lfingers 7.12502 -0 0
lthumb 18.3785 6.55453 0.00198544
rclavicle 3.13086e-14 9.54166e-15 0
rhumerus -47.0517 8.15191 -86.8108
rradius 40.3279 -0 0
rwrist -21.8595 0 0
rhand -29.08 -22.3458 -0.00533576
rfingers 7.12502 -0 0
rthumb -2.42897 -52.3125 -0.00509058
250
root 9.40708 16.3958 -1.51068 9.61765 -5.83702 -1.48653
lfemur -41.8504 9.54334 -24.3817
ltibia 41.7978 -0 0
lfoot -8.41221 5.11803 0.0156214
ltoes -0.314308 0 0
rfemur 8.44747 1.26033 19.2118
rtibia 32.139 -0 0
rfoot 9.04941 4.10043 0.211949
rtoes -15.9601 0 0
lowerback -6.34388 1.8179 -0.926749
upperback -3.01066 2.45726 1.71719
thorax 0.354848 1.24689 2.436
lowerneck -18.6941 -5.73277 -13.8204
upperneck 17.8065 -7.21451 14.4113
head 9.79421 -2.79676 6.38472
lclavicle 3.13086e-14 9.54166e-15 0
lhumerus -44.1932 -5.14761 88.0264
lradius 19.9395 -0 0
lwrist -7.36595 0 0
lhand -7.62334 -22.611 0.00510524
lfingers 7.12502 -0 0
lthumb 18.2707 6.54344 0.00335113
rclavicle 3.13086e-14 9.54166e-15 0
rhumerus -47.153 8.11153 -86.7974
rradius 40.2408 -0 0
rwrist -21.8424 0 0
rhand -29.0534 -22.261 -0.00767941
rfingers 7.12502 -0 0
rthumb -2.40329 -52.2283 -0.00732714
251
root 9.42424 16.4082 -1.38078 9.54846 -5.80317 -1.37052
lfemur -41.2536 9.49936 -24.5424
ltibia 41.6149 -0 0
lfoot -8.59348 5.07282 0.0207448
ltoes -0.235454 0 0
rfemur 7.70596 1.22302 19.042
rtibia 32.605 -0 0
rfoot 8.70668 3.77236 0.297676
rtoes -16.1738 0 0
lowerback -6.32341 1.72335 -1.01497
upperback -2.97515 2.3373 1.71237
thorax 0.38884 1.1861 2.47048
lowerneck -18.7766 -5.68738 -13.7677
upperneck 17.9297 -7.15195 14.3412
head 9.839 -2.76805 6.3645
lclavicle 3.13086e-14 9.54166e-15 0
lhumerus -43.5668 -5.31439 87.9629
lradius 19.9737 -0 0
lwrist -7.33783 0 0
lhand -7.7579 -22.6335 0.00747254
lfingers 7.12502 -0 0
lthumb 18.1411 6.5297 0.00492763
rclavicle 3.13086e-14 9.54166e-15 0
rhumerus -47.2417 8.07456 -86.7721
rradius 40.1719 -0 0
rwrist -21.827 0 0
rhand -29.0326 -22.1796 -0.00979956
rfingers 7.12502 -0 0
rthumb -2.38323 -52.1475 -0.00935083
252
root 9.4414 16.4207 -1.25089 9.46983 -5.75606 -1.2494
lfemur -40.6154 9.43763 -24.7055
ltibia 41.3933 -0 0
lfoot -8.80661 5.03676 0.0257781
ltoes -0.174821 0 0
rfemur 6.89317 1.18495 18.8777
rtibia 33.0784 -0 0
rfoot 8.28533 3.41372 0.388494
rtoes -16.3957 0 0
lowerback -6.29992 1.62155 -1.10526
upperback -2.93244 2.20772 1.70984
thorax 0.42937 1.12035 2.50786
lowerneck -18.8631 -5.63939 -13.7111
upperneck 18.0589 -7.0856 14.2657
head 9.88587 -2.73779 6.3425
lclavicle 3.13086e-14 9.54166e-15 0
lhumerus -42.8929 -5.49915 87.9004
lradius 20.0064 -0 0
lwrist -7.24965 0 0
lhand -7.91384 -22.6601 0.0100939
lfingers 7.12502 -0 0
lthumb 17.9908 6.51342 0.00668391
rclavicle 3.13086e-14 9.54166e-15 0
rhumerus -47.3184 8.04087 -86.7357
rradius 40.1203 -0 0
rwrist -21.8407 0 0
rhand -29.0174 -22.1017 -0.0116931
rfingers 7.12502 -0 0
rthumb -2.36852 -52.07 -0.0111587
253
root 9.45857 16.4331 -1.121 9.38235 -5.69615 -1.12357
lfemur -39.9377 9.35946 -24.8708
ltibia 41.1349 -0 0
lfoot -9.04943 5.00924 0.0307159
ltoes -0.131787 0 0
rfemur 6.01312 1.14592 18.7188
rtibia 33.5582 -0 0
rfoot 7.78975 3.02633 0.482852
rtoes -16.625 0 0
lowerback -6.27363 1.51292 -1.19748
upperback -2.88295 2.06906 1.70948
thorax 0.476079 1.04991 2.54796
lowerneck -18.9532 -5.58896 -13.6511
upperneck 18.1935 -7.01572 14.1852
head 9.93466 -2.70611 6.31885
lclavicle 3.13086e-14 9.54166e-15 0
lhumerus -42.1748 -5.70111 87.8389
lradius 20.0498 -0 0
lwrist -7.14811 0 0
lhand -8.08979 -22.6906 0.012918
lfingers 7.12502 -0 0
lthumb 17.8212 6.49472 0.00858747
rclavicle 3.13086e-14 9.54166e-15 0
rhumerus -47.3837 8.0103 -86.6886
rradius 40.0848 -0 0
rwrist -21.8547 0 0
rhand -29.0074 -22.0273 -0.0133589
rfingers 7.12502 -0 0
rthumb -2.35887 -51.9959 -0.0127495
